<svg xmlns="http://www.w3.org/2000/svg" width="1000" height="460">
<rect width="100%" height="100%" fill="white"/>
<text x="70" y="24" font-size="16" font-family="Arial">Prediction Performance</text>
<line x1="70" y1="40" x2="70" y2="380" stroke="#333" stroke-width="1"/>
<line x1="70" y1="380" x2="970" y2="380" stroke="#333" stroke-width="1"/>
<rect x="95.71428571428572" y="40" width="28.28571428571429" height="340" fill="#4C78A8"/>
<text x="109.85714285714286" y="36" font-size="10" font-family="Arial" text-anchor="middle">27</text>
<rect x="128.0" y="116" width="28.28571428571429" height="264" fill="#54A24B"/>
<text x="142.14285714285714" y="112" font-size="10" font-family="Arial" text-anchor="middle">21</text>
<rect x="160.2857142857143" y="355" width="28.28571428571429" height="25" fill="#E45756"/>
<text x="174.42857142857144" y="351" font-size="10" font-family="Arial" text-anchor="middle">2</text>
<text x="124.00000000000001" y="400" font-size="11" font-family="Arial" text-anchor="middle">B/U-&gt;C_or_F</text>
<rect x="224.2857142857143" y="204" width="28.28571428571429" height="176" fill="#4C78A8"/>
<text x="238.42857142857144" y="200" font-size="10" font-family="Arial" text-anchor="middle">14</text>
<rect x="256.5714285714286" y="255" width="28.28571428571429" height="125" fill="#54A24B"/>
<text x="270.7142857142858" y="251" font-size="10" font-family="Arial" text-anchor="middle">10</text>
<rect x="288.8571428571429" y="380" width="28.28571428571429" height="0" fill="#E45756"/>
<text x="303.00000000000006" y="376" font-size="10" font-family="Arial" text-anchor="middle">0</text>
<text x="252.57142857142858" y="400" font-size="11" font-family="Arial" text-anchor="middle">C-&gt;F</text>
<rect x="352.8571428571429" y="255" width="28.28571428571429" height="125" fill="#4C78A8"/>
<text x="367.00000000000006" y="251" font-size="10" font-family="Arial" text-anchor="middle">10</text>
<rect x="385.14285714285717" y="267" width="28.28571428571429" height="113" fill="#54A24B"/>
<text x="399.28571428571433" y="263" font-size="10" font-family="Arial" text-anchor="middle">9</text>
<rect x="417.42857142857144" y="280" width="28.28571428571429" height="100" fill="#E45756"/>
<text x="431.5714285714286" y="276" font-size="10" font-family="Arial" text-anchor="middle">8</text>
<text x="381.14285714285717" y="400" font-size="11" font-family="Arial" text-anchor="middle">B/U-&gt;C-&gt;F</text>
<rect x="481.4285714285715" y="280" width="28.28571428571429" height="100" fill="#4C78A8"/>
<text x="495.57142857142867" y="276" font-size="10" font-family="Arial" text-anchor="middle">8</text>
<rect x="513.7142857142858" y="292" width="28.28571428571429" height="88" fill="#54A24B"/>
<text x="527.8571428571429" y="288" font-size="10" font-family="Arial" text-anchor="middle">7</text>
<rect x="546.0000000000001" y="380" width="28.28571428571429" height="0" fill="#E45756"/>
<text x="560.1428571428572" y="376" font-size="10" font-family="Arial" text-anchor="middle">0</text>
<text x="509.7142857142858" y="400" font-size="11" font-family="Arial" text-anchor="middle">ALL C</text>
<rect x="610.0" y="343" width="28.28571428571429" height="37" fill="#4C78A8"/>
<text x="624.1428571428571" y="339" font-size="10" font-family="Arial" text-anchor="middle">3</text>
<rect x="642.2857142857143" y="355" width="28.28571428571429" height="25" fill="#54A24B"/>
<text x="656.4285714285714" y="351" font-size="10" font-family="Arial" text-anchor="middle">2</text>
<rect x="674.5714285714286" y="368" width="28.28571428571429" height="12" fill="#E45756"/>
<text x="688.7142857142857" y="364" font-size="10" font-family="Arial" text-anchor="middle">1</text>
<text x="638.2857142857143" y="400" font-size="11" font-family="Arial" text-anchor="middle">ALL F</text>
<rect x="738.5714285714286" y="355" width="28.28571428571429" height="25" fill="#4C78A8"/>
<text x="752.7142857142857" y="351" font-size="10" font-family="Arial" text-anchor="middle">2</text>
<rect x="770.8571428571429" y="355" width="28.28571428571429" height="25" fill="#54A24B"/>
<text x="785.0" y="351" font-size="10" font-family="Arial" text-anchor="middle">2</text>
<rect x="803.1428571428571" y="368" width="28.28571428571429" height="12" fill="#E45756"/>
<text x="817.2857142857142" y="364" font-size="10" font-family="Arial" text-anchor="middle">1</text>
<text x="766.8571428571429" y="400" font-size="11" font-family="Arial" text-anchor="middle">B/U-&gt;F-&gt;C</text>
<rect x="867.1428571428572" y="380" width="28.28571428571429" height="0" fill="#4C78A8"/>
<text x="881.2857142857143" y="376" font-size="10" font-family="Arial" text-anchor="middle">0</text>
<rect x="899.4285714285716" y="380" width="28.28571428571429" height="0" fill="#54A24B"/>
<text x="913.5714285714287" y="376" font-size="10" font-family="Arial" text-anchor="middle">0</text>
<rect x="931.7142857142858" y="368" width="28.28571428571429" height="12" fill="#E45756"/>
<text x="945.8571428571429" y="364" font-size="10" font-family="Arial" text-anchor="middle">1</text>
<text x="895.4285714285716" y="400" font-size="11" font-family="Arial" text-anchor="middle">F-&gt;C</text>
<rect x="730" y="20" width="10" height="10" fill="#4C78A8"/>
<text x="746" y="29" font-size="11" font-family="Arial">Ground Truth</text>
<rect x="730" y="36" width="10" height="10" fill="#54A24B"/>
<text x="746" y="45" font-size="11" font-family="Arial">True Positive</text>
<rect x="730" y="52" width="10" height="10" fill="#E45756"/>
<text x="746" y="61" font-size="11" font-family="Arial">False Positive</text>
</svg>