<svg xmlns="http://www.w3.org/2000/svg" width="900" height="370">
<rect width="100%" height="100%" fill="white"/>
<text x="180" y="30" font-size="16" font-family="Arial">Ground Truth Malicious Chain (Total=264)</text>
<text x="170" y="78" font-size="12" font-family="Arial" text-anchor="end">ALL C</text>
<rect x="180" y="60" width="680" height="20" fill="#4C78A8"/>
<text x="866" y="75" font-size="12" font-family="Arial">104 (39.4%)</text>
<text x="170" y="118" font-size="12" font-family="Arial" text-anchor="end">ALL F</text>
<rect x="180" y="100" width="536" height="20" fill="#4C78A8"/>
<text x="722" y="115" font-size="12" font-family="Arial">82 (31.1%)</text>
<text x="170" y="158" font-size="12" font-family="Arial" text-anchor="end">B/U-&gt;C_or_F</text>
<rect x="180" y="140" width="326" height="20" fill="#4C78A8"/>
<text x="512" y="155" font-size="12" font-family="Arial">50 (18.9%)</text>
<text x="170" y="198" font-size="12" font-family="Arial" text-anchor="end">C-&gt;F</text>
<rect x="180" y="180" width="104" height="20" fill="#4C78A8"/>
<text x="290" y="195" font-size="12" font-family="Arial">16 (6.1%)</text>
<text x="170" y="238" font-size="12" font-family="Arial" text-anchor="end">B/U-&gt;C-&gt;F</text>
<rect x="180" y="220" width="58" height="20" fill="#4C78A8"/>
<text x="244" y="235" font-size="12" font-family="Arial">9 (3.4%)</text>
<text x="170" y="278" font-size="12" font-family="Arial" text-anchor="end">B/U-&gt;F-&gt;C</text>
<rect x="180" y="260" width="13" height="20" fill="#4C78A8"/>
<text x="199" y="275" font-size="12" font-family="Arial">2 (0.8%)</text>
<text x="170" y="318" font-size="12" font-family="Arial" text-anchor="end">F-&gt;C</text>
<rect x="180" y="300" width="6" height="20" fill="#4C78A8"/>
<text x="192" y="315" font-size="12" font-family="Arial">1 (0.4%)</text>
</svg>