<svg xmlns="http://www.w3.org/2000/svg" width="980" height="370">
<rect width="100%" height="100%" fill="white"/>
<text x="190" y="30" font-size="16" font-family="Arial">GT Malware-Type Chain Patterns (Total=104)</text>
<text x="180" y="78" font-size="12" font-family="Arial" text-anchor="end">B/U-&gt;F</text>
<rect x="190" y="60" width="750" height="20" fill="#4C78A8"/>
<text x="946" y="75" font-size="12" font-family="Arial">39 (37.5%)</text>
<text x="180" y="118" font-size="12" font-family="Arial" text-anchor="end">B/U-&gt;C</text>
<rect x="190" y="100" width="557" height="20" fill="#4C78A8"/>
<text x="753" y="115" font-size="12" font-family="Arial">29 (27.9%)</text>
<text x="180" y="158" font-size="12" font-family="Arial" text-anchor="end">B/U-&gt;C-&gt;F</text>
<rect x="190" y="140" width="250" height="20" fill="#4C78A8"/>
<text x="446" y="155" font-size="12" font-family="Arial">13 (12.5%)</text>
<text x="180" y="198" font-size="12" font-family="Arial" text-anchor="end">C-&gt;F</text>
<rect x="190" y="180" width="192" height="20" fill="#4C78A8"/>
<text x="388" y="195" font-size="12" font-family="Arial">10 (9.6%)</text>
<text x="180" y="238" font-size="12" font-family="Arial" text-anchor="end">ALL C</text>
<rect x="190" y="220" width="173" height="20" fill="#4C78A8"/>
<text x="369" y="235" font-size="12" font-family="Arial">9 (8.7%)</text>
<text x="180" y="278" font-size="12" font-family="Arial" text-anchor="end">ALL F</text>
<rect x="190" y="260" width="38" height="20" fill="#4C78A8"/>
<text x="234" y="275" font-size="12" font-family="Arial">2 (1.9%)</text>
<text x="180" y="318" font-size="12" font-family="Arial" text-anchor="end">B/U-&gt;F-&gt;C</text>
<rect x="190" y="300" width="38" height="20" fill="#4C78A8"/>
<text x="234" y="315" font-size="12" font-family="Arial">2 (1.9%)</text>
</svg>