<svg xmlns="http://www.w3.org/2000/svg" width="980" height="470">
<rect width="100%" height="100%" fill="white"/>
<text x="70" y="24" font-size="16" font-family="Arial">Prediction Performance on Malware-Type Chains</text>
<line x1="70" y1="40" x2="70" y2="390" stroke="#333" stroke-width="1"/>
<line x1="70" y1="390" x2="950" y2="390" stroke="#333" stroke-width="1"/>
<rect x="101.42857142857143" y="40" width="37.71428571428571" height="350" fill="#4C78A8"/>
<text x="120.28571428571428" y="36" font-size="10" font-family="Arial" text-anchor="middle">39</text>
<rect x="143.14285714285714" y="85" width="37.71428571428571" height="305" fill="#54A24B"/>
<text x="162.0" y="81" font-size="10" font-family="Arial" text-anchor="middle">34</text>
<text x="139.14285714285714" y="410" font-size="11" font-family="Arial" text-anchor="middle">B/U-&gt;F</text>
<rect x="227.14285714285714" y="130" width="37.71428571428571" height="260" fill="#4C78A8"/>
<text x="246.0" y="126" font-size="10" font-family="Arial" text-anchor="middle">29</text>
<rect x="268.85714285714283" y="139" width="37.71428571428571" height="251" fill="#54A24B"/>
<text x="287.71428571428567" y="135" font-size="10" font-family="Arial" text-anchor="middle">28</text>
<text x="264.85714285714283" y="410" font-size="11" font-family="Arial" text-anchor="middle">B/U-&gt;C</text>
<rect x="352.8571428571429" y="274" width="37.71428571428571" height="116" fill="#4C78A8"/>
<text x="371.7142857142857" y="270" font-size="10" font-family="Arial" text-anchor="middle">13</text>
<rect x="394.5714285714286" y="310" width="37.71428571428571" height="80" fill="#54A24B"/>
<text x="413.42857142857144" y="306" font-size="10" font-family="Arial" text-anchor="middle">9</text>
<text x="390.5714285714286" y="410" font-size="11" font-family="Arial" text-anchor="middle">B/U-&gt;C-&gt;F</text>
<rect x="478.57142857142856" y="301" width="37.71428571428571" height="89" fill="#4C78A8"/>
<text x="497.4285714285714" y="297" font-size="10" font-family="Arial" text-anchor="middle">10</text>
<rect x="520.2857142857142" y="301" width="37.71428571428571" height="89" fill="#54A24B"/>
<text x="539.1428571428571" y="297" font-size="10" font-family="Arial" text-anchor="middle">10</text>
<text x="516.2857142857142" y="410" font-size="11" font-family="Arial" text-anchor="middle">C-&gt;F</text>
<rect x="604.2857142857143" y="310" width="37.71428571428571" height="80" fill="#4C78A8"/>
<text x="623.1428571428572" y="306" font-size="10" font-family="Arial" text-anchor="middle">9</text>
<rect x="646.0" y="319" width="37.71428571428571" height="71" fill="#54A24B"/>
<text x="664.8571428571429" y="315" font-size="10" font-family="Arial" text-anchor="middle">8</text>
<text x="642.0" y="410" font-size="11" font-family="Arial" text-anchor="middle">ALL C</text>
<rect x="730.0" y="373" width="37.71428571428571" height="17" fill="#4C78A8"/>
<text x="748.8571428571429" y="369" font-size="10" font-family="Arial" text-anchor="middle">2</text>
<rect x="771.7142857142857" y="373" width="37.71428571428571" height="17" fill="#54A24B"/>
<text x="790.5714285714286" y="369" font-size="10" font-family="Arial" text-anchor="middle">2</text>
<text x="767.7142857142857" y="410" font-size="11" font-family="Arial" text-anchor="middle">B/U-&gt;F-&gt;C</text>
<rect x="855.7142857142857" y="373" width="37.71428571428571" height="17" fill="#4C78A8"/>
<text x="874.5714285714286" y="369" font-size="10" font-family="Arial" text-anchor="middle">2</text>
<rect x="897.4285714285713" y="382" width="37.71428571428571" height="8" fill="#54A24B"/>
<text x="916.2857142857142" y="378" font-size="10" font-family="Arial" text-anchor="middle">1</text>
<text x="893.4285714285713" y="410" font-size="11" font-family="Arial" text-anchor="middle">ALL F</text>
<rect x="710" y="20" width="10" height="10" fill="#4C78A8"/>
<text x="726" y="29" font-size="11" font-family="Arial">Ground Truth</text>
<rect x="710" y="36" width="10" height="10" fill="#54A24B"/>
<text x="726" y="45" font-size="11" font-family="Arial">True Positive</text>
</svg>